<?xml version="1.0" encoding="UTF-8"?><svg xmlns="http://www.w3.org/2000/svg" width="1104.25" height="671.57" viewBox="0 0 1104.25 671.57"><defs><style>.cls-1{fill:#e3c2bf;}.cls-2{fill:#e3c2af;}.cls-3{fill:#e3aaaf;}.cls-4{fill:#e3b6af;}.cls-5{fill:#e3abaf;}.cls-6{fill:#e3b9af;}.cls-7{fill:#e3b5af;}.cls-8{fill:#e3afaf;}.cls-9{fill:#e3acaf;}.cls-10{fill:#e3adaf;}.cls-11{fill:#e3a9af;}.cls-12{fill:#e3a6b7;}.cls-13{fill:#e3aeaf;}.cls-14{fill:#bb7aa1;}.cls-15{fill:#cb6f7c;}.cls-16{fill:#cb6f86;}.cls-17{fill:#cb7d92;}.cls-18{fill:#cb6a92;}.cls-19{fill:#cb7590;}.cls-20{fill:#cb6b92;}.cls-21{fill:#d17076;}.cls-22{fill:#d185a3;}.cls-23{fill:#d093aa;}.cls-24{fill:#c794a2;}.cls-25{fill:#c77f81;}.cls-26{fill:#c78da2;}.cls-27{fill:#c784a2;}.cls-28{fill:#c783a2;}.cls-29{fill:#c780a2;}.cls-30{fill:#e3828e;}.cls-31{fill:#c77ba2;}.cls-32{fill:#c791a2;}.cls-33{fill:#c799af;}.cls-34{fill:#c799b1;}.cls-35{fill:#c78fb1;}.cls-36{fill:#c792b4;}.cls-37{fill:#c7848b;}.cls-38{fill:#c7768b;}.cls-39{fill:#c779a2;}.cls-40{fill:#c772a2;}.cls-41{fill:#c785af;}.cls-42{fill:#c765a2;}.cls-43{fill:#c5798b;}.cls-44{fill:#dc9bb3;}.cls-45{fill:#d493b5;}.cls-46{fill:#e39baf;}.cls-47{fill:#e39bce;}.cls-48{fill:#e39eaf;}.cls-49{fill:#e396a5;}.cls-50{fill:#e379a5;}.cls-51{fill:#e29bc6;}.cls-52{fill:#3b180b;}.cls-53{fill:#55310b;}.cls-54{fill:#d07ab8;}.cls-54,.cls-55,.cls-56,.cls-57,.cls-58{isolation:isolate;opacity:.94;}.cls-55{fill:#e38e9b;}.cls-56{fill:#d0a7b8;}.cls-57{fill:#d098b8;}.cls-58{fill:#d094b8;}</style></defs><g id="Layer_2"><g id="gren"><path class="cls-53" d="m15.98,301.67s41.84,10,60.42,0,21.1.44,33.84,2.22,80.74-55.22,73.74-67.22,86-148,186-95c0,0-95-26-131,48s-34,25-53,76c1.07.85,2.75,2.04,5,3,9.81,4.19,19.79-.46,28-3,6.54-2.02,15.36-2.35,33-3,40.38-1.49,44.98,16.21,68,9,6.32-1.98,29.11-10.56,36-8,.21.08.57.23.62.51.48,2.64-27.84,13.17-54.62,13.49-18.59.23-17.96-4.69-40-7,0,0-53.01-5.55-98,30-.54.43-2.05,1.61-1.75,2.16,1.4,2.53,69.68-32.64,188.06,25.1,130.69,63.74,120.69,30.74,183.69,25.74,63-5,152,1,171,27s56,12,79-6,25-2,65-7,16-13,64,0,60-4,67,7,26-16,59-20,75-1,45,1-72,4-86,24,28,12,51,32,27,21,38,25-17,2-45-19-34-9-59-27-63-9-76-12-18-9-30-7-50,10-56,7-37,4-54,18-49,14-74-6-72-32-149-26-40,44-195-22-211-20-138-1,81,143,120,163c39,20,42,34,70,36s-22,10-46-13-37,8-88-115c0,0-31-60-88-66s-30.58-45.49-68.79-18.74c0,0-46.21-9.26-81.21-5.26s-37-2-13-21h0Z"/><path class="cls-53" d="m550.78,359.75s53.2,59.93,58.2,91.93,21,24,26,33,16,28,35,34,6.98,11.95,37.99,24.97,21.01-45.97,39.01-30.97,19-19,44,5-1-9-9-15-19,15-46-1,4,43-23,32-11-9-40-26-8-1-35-35-9,10-30-48-108.4-86.85-57.2-64.93Z"/><path class="cls-53" d="m300.66,314.67s50.31,1,140.31-78c90-79,43.29-103.72,106.15-117.36s.85-35.64,108.85-44.64,0,10,71,13,68-17,84-9,32,4-92,15c0,0-57,0-24-14,0,0-77,0-96,17s-17,30-68,43c0,0-41,66-83,102s-120.63,87-147.31,73h0Z"/><path class="cls-52" d="m10.48,316.17c1.62-2.41,3.24-4.83,4.74-7.31.72-1.24,1.48-2.52,1.91-3.82.05-.16.08-.32.09-.45,0-.15-.03-.18,0-.11h.01-.07s-.11.01-.18.03c-.13.02-.29.09-.44.14-.62.25-1.24.62-1.83,1-2.39,1.55-4.62,3.41-6.67,5.41-1.02,1.01-2,2.05-2.87,3.16-.85,1.1-1.67,2.31-1.96,3.49-.14.59-.09,1.09.17,1.36.24.3.85.49,1.47.59,1.29.19,2.73.12,4.15.02,2.86-.21,5.75-.57,8.64-.89,5.79-.64,11.61-1.12,17.43-1.45,11.64-.58,23.33-.6,34.96.28,5.82.43,11.62,1.09,17.37,2.01,5.75.96,11.47,2.09,17.1,3.54-11.44-2.11-22.99-3.42-34.57-3.99-11.58-.56-23.19-.45-34.76.16-5.79.29-11.56.76-17.34,1.33-2.89.27-5.78.59-8.72.75-1.48.06-2.96.14-4.55-.12-.77-.17-1.69-.35-2.41-1.19-.72-.86-.67-1.99-.45-2.78.48-1.64,1.42-2.85,2.35-4.01.95-1.16,2-2.21,3.09-3.2,2.19-1.98,4.51-3.79,7.06-5.3.65-.37,1.3-.72,2.04-.98.2-.06.37-.12.6-.15.1-.02.22-.04.36-.02l.2.02c.09.03.17.07.26.12.17.08.28.3.32.45.03.15.03.28.02.4-.03.23-.08.42-.15.61-.56,1.45-1.38,2.64-2.18,3.87-1.62,2.43-3.38,4.74-5.18,7.03h-.01Z"/><path class="cls-52" d="m191.48,247.17c-1.91,3.91-3.58,7.92-4.97,12.03-1.26,4.22-3.93,8.26,1.55,10.51,3.93,1.63,8.42,1.63,12.64,1.54,4.32-.14,8.62-.79,12.78-2.08-4.03,1.69-8.39,2.54-12.74,2.85-4.39.26-8.9.24-13.08-1.4-4.18-1.87-4.53-4.63-3-8.62,1.81-5.14,3.98-10.18,6.83-14.83h0Z"/></g></g><g id="Layer_1"><g id="blomster"><path class="cls-49" d="m860.27,435.44c-.62.22-1.6.4-2.93-.03-5.25-1.69-9.73-10.86-13.2-11.76-2.27-.59-.92,3.16-5.71,3.43-.74.04-3.36.19-6.26-1.2-3.42-1.63-4.64-4.16-6.61-4.66-1.57-.4-1.04,1.15-2.95,1.04-3.28-.19-9.18-5.03-10.18-4.73-.29.09.08.53.33,1.05,1.47,3.05-3.46,3.57-2.3,4.72,1.16,1.15,6.59,1.13,7.91,2.41.68.66.04,1.45-1.03,1.67-1.24.25-3.24.36-6.14-1.38-5.54-3.33-15.52-6.44-10.78-2.96,4.08,2.99,5.89,4.57,12.83,8.91,9.94,6.22,10.22,10.68,15.69,12.47,3.85,1.26,4.08-.83,8.57.67,5.19,1.73,9.57,6.08,10.89,5.9.62-.09-.52-1.04.15-1.58.79-.63,3.04-.23,6.43-.03.77.04,1.01-.1,1.06-.24.53-1.54-15.06-9.61-14.66-10.41.23-.46,5.92,1.26,11.08,4.39,4.41,2.68,7.1,5.59,9.5,5.91.17.02.96.13,1.22-.18.15-.17.5-.9-6.57-7.64-.57-.54-1.18-1.11-1.03-1.17.46-.19,6.54,5.07,13.29,7.12,3,.91,4.94.83,5.57.8,2.93-.15,3.88-.92,3.55-1.98-.14-.45-.68-1.4-4.26-3.77-2.47-1.63-6.93-4.3-13.47-6.76h.01Z"/><path class="cls-47" d="m1058.3,415.9s-7.35-7.44,0-9.5-16.53-6.69-18.36-2.06-14.69,9.25-20.2,8.1c-5.51-1.16-17.86-5.78-13.52,3.47,4.34,9.25,24.36,4.15,26.29,5.54s-.08,15.65,8.27,9.1,5.05-10.5,9.45-9.1,23.76,5.54,15.92,0"/><path class="cls-47" d="m1026.12,402.26c.11.43.24,1.18,0,2-.7,2.35-3.64,2.37-4,4-.49,2.23,4.42,4.66,3.8,6.06-.31.69-1.65.49-1.71.76-.49,2.18,15.95,7.47,18.89,3.81,3.41-4.26,17.57-6.98,22.54-5.08,4.97,1.9,15.39,8.13,14.41-1.5-.99-9.63-22.31-7.44-23.69-9.07-1.39-1.63,5.57-15.25-4.87-10.03s-8.61,9.54-12.41,7.56c-3.86-2.01-15.6-6-16.59-4.51-.25.38.03,1.34,2.63,4"/><path class="cls-34" d="m439.68,492.94c-2.16-1.56-5.42-3.46-9.58-4.07-10.32-1.53-15.1,6.41-25.19,5.82-4.84-.29-7.39-.29-12.51-.31-.75,0-1.05,0-1.48.04-4.63.46-6.55,3.69-9.94,5.88-5.88,3.8-11.77,1.65-12.03,3.44-.06.43.17,1.26,3.68,3.27,9,5.15,15.54,4.29,16.9,8.26.55,1.6.07,3.45,0,3.74-.78,3.08-3.37,4.42-2.9,6.23.06.24.16.67.75,1.12,2.58,1.94,8.78,1.15,17.37,4.02,8.57,2.86,8.34,5.63,12.38,5.65,7.08.04,11.86-8.42,18.08-8.17,1.94.08,1.89.94,4.48,1.26,6.12.74,18.48-2.62,18.58-5.93.07-2.5-6.83-4.48-4.25-5.71.52-.25,1.24-.38,2.69-.63,2.61-.46,4.77-.48,7.72-.57,5.35-.15,8-.25,9.17-.49,1.75-.38,3.09-1.29,3.61-3.47.53-2.24.14-4.21-.18-5.49-.35-1.4-.8-3.2-2-4.66-2.58-3.11-5.25-.61-10.26-3.74-1.1-.69-2.75-1.93-5.64-3.3-.61-.29-1.11-.53-1.61-.72-4.14-1.6-7.16.46-11.56.28-1.43-.06-3.6-.38-6.27-1.75h0Z"/><path class="cls-22" d="m403.2,547.1c.41-.24,1.22-.81,1.71-1.87,1.01-2.23-.34-4.57-.47-4.78-1-1.67-2.25-1.58-2.34-2.22-.26-2.02,11.24-9.33,25.16-8.62,3.61.18,12.49,1.17,18.68-1.23,1.95-.75,3.3-1.71,3.77-3.18.7-2.2-1.12-3.89-.35-6.18.44-1.31,1.43-1.93,3.31-3.1,4.17-2.61,6.24-1.5,7.47-3.63,2.02-3.51-1.24-7.7,6.23-4.78,11.06,4.32,23.68,6.3,26.77,3.58.25-.22,1.07-1.02,2.38-1.42,1.5-.46,2.67-.1,3.42,0,2.71.35,4.84-2.18,6.84-3.74,3.85-3.02,9.48-4.25,13.71-3.16,6.79,1.74,10.44,9.5,10.1,12.03-.12.89-.73,1.75-2,2.6-6.45,4.28,14.24,11.5,12.25,19.01-1.99,7.5-5.2,19.63-15.2,17.21s-13.23-.28-24.75,3.08c-11.53,3.36-17.69-10.98-22.65-6.1-3.66,3.6,3.97,7.66,3.37,9.7-.3,1.03-2.16.94-4.63,1.29-7.35,1.06-8.02,4.28-12.94,4.24-4.56-.03-4.73-2.79-9.16-2.96-4.98-.19-6.42,4.24-11.56,5.33-16.91,3.59-24.65.15-25.06-4.58-.28-3.29-8.58-5.4-12.52-13.03-.72-1.39-1.21-2.61-1.54-3.48h0Z"/><path class="cls-25" d="m763.41,436.36s33.85-41.53,57.47-12.35,92.89-4.31,62.98-17.45c-29.91-13.14-33.85-29.92-27.95-40.48,5.9-10.57,33.32-66.34-19.55-66.01s-76.1,37.14-85.15,20c-9.05-17.14-68.91-.41-46.07,18.2,22.84,18.6,12.4,63.38-4.62,64.12s50.29,66.04,62.89,33.97h0Z"/><path class="cls-51" d="m498.93,371.58s-6.01-10.4,3.72-18.69c9.73-8.28-8.38-28.28-26.62-25.87s-26.99,6.37-26.13-10.54,13.51-17.58-3.51-22.13c-17.03-4.55-3.4-30.14-15.99-20.08s-34.34-2.46-30.82,12.47-15.44,11.84-14.22-2.32-12.33-34.76-16.77-21.58c-4.44,13.18-16.85,24.62-9.31,34.82,7.53,10.2-16.48,27.37-14.12,45.25,2.36,17.88,6.18,46.77,17.8,41.04,11.61-5.73,15.38-.63,28.81,7.39,13.43,8.02,20.49-26.11,26.3-14.48,5.8,11.63-12.5,25.25,1.54,26.19s22.86-14.22,25.29-7.54-5.78,14.76,13.91,23.35,28.67.42,29.11-10.84,22.94-28.23,11.03-36.45h-.02Z"/><path class="cls-37" d="m655.2,138.98c-6.94-10.39-17.76-22.84-31.8-23.59-15.22-.81-19.7,12.91-35.87,14.39-27.97,2.56-52.99-34.99-56.94-31.59-2.06,1.78,7.22,10.19,4.74,17.48-5.64,16.62-71.08,8.34-74.29,20.6-2.56,9.8,36.68,25.22,32.78,34.05-2.07,4.68-14.99,4.66-15.39,9.7-.13,1.67,1.16,3.18,2.92,4.66,12.96,10.91,35.1-1.56,50.98,10.62,2.45,1.88,4.06,3.88,7.27,7.89,10.02,12.49,9.85,20.14,16.43,23.3,1.05.5,4.6,2.01,16.7-1.75,14.34-4.45,33.28-10.33,41.12-26.59,5.68-11.78.1-17.77,7.14-24.29,7.27-6.73,22.19-8.65,27.38-6.96.74.24,4.13,1.48,8.3.75.61-.11,1.41-.25,1.86-.48,4.68-2.34-2.63-25.96-3.34-28.2h.01Z"/><path class="cls-38" d="m486.53,86.01c3.73,5.83,8.2,14.9,7.45,25.66-.89,12.87-8.47,17.06-6.31,25.52,3.18,12.42,24.07,21.09,32.31,15.48,4.03-2.75,2.5-7.19,6-9,9.38-4.85,29.41,22.46,35.98,18.53,5.26-3.14-2.14-23.87,3.17-26.11,2.81-1.19,7.48,3.53,9.85,1.58.78-.64.98-1.74,1-3,.08-6.28-4.28-21.58-13.77-23.01-5.89-.89-10.3,4.11-11.23,3.01-1.94-2.28,18.81-21.68,16.42-24.62-.35-.43-1.09-.37-1.47-.33-8.59.79-25.5-14.62-35.92-1.83s-16.6,5.3-22.34-6.74c-1.21-2.55-2.58-3.38-3.56-3.82-4.96-2.26-12.47,3.76-17.59,8.69h.01Z"/><path class="cls-34" d="m688.12,266.51c5.75-10.1,10.97-12.71,15.01-12.83,14.66-.43,24.21,31.58,38.32,30.68,8.72-.56,10.7-13.16,20.74-13.33,2.69-.05,6.15,0,16.05,9.18,10.86,10.08,19.99,14.51,20.71,20.32.25,2-.6,4.85-5.77,10.31-16.1,17.02-34.7,15.59-39.09,25.08-5.96,12.86,23.32,24.82,15.99,35.92-4.04,6.12-13.75,3.62-27.21,12.66-13.42,9.01-13.06,17.73-19.39,17.81-11.09.14-18.58-26.52-28.32-25.74-3.04.24-2.96,2.97-7.02,3.97-9.58,2.34-28.95-8.25-29.11-18.7-.12-7.87,10.69-14.13,6.66-17.99-.82-.78-1.95-1.18-4.21-1.98-4.09-1.45-7.48-1.51-12.1-1.78-8.38-.49-12.54-.77-14.36-1.56-2.75-1.18-4.85-4.06-5.66-10.94-2.68-22.78,3.48-25.97,17.05-30.23,16.69-5.24,6.26-24.49,13.8-26.23,5.46-1.26,10.84,6.47,18.1,5.31,5.3-.85,8.21-5.9,9.82-9.91v-.02Z"/><path class="cls-49" d="m209.39,276.4s4.02,1.24,3.4,5.74c-.62,4.5,8.84,5.3,13.08.27s5.62-8.17,9.36-3.58.56,7.82,6.11,4.88c5.55-2.94,7.96,6.98,8.92,1.34.96-5.65,9.62-7.66,5.2-10.67s1.29-6.8,4.29-2.84,11.4,6.02,9.48,1.54c-1.92-4.49-1.33-10.44-5.71-11.27-4.38-.82-2.08-11.07-6.89-15.13-4.82-4.06-12.6-10.62-14.31-6.33-1.71,4.29-3.9,3.88-9.32,5.05s.72,11.71-3.53,10.1c-4.26-1.61-2.63-9.56-6.55-6.41s-2.69,9.2-4.89,8.06-1.94-5.22-9.14-2.69-7.65,6.82-5.13,9.84c2.52,3.02.58,12.85,5.64,12.1h-.01Z"/><path class="cls-25" d="m261.73,426.74s24.32,24.6,4.35,38.55c-19.97,13.95-2.91,61.45,7.26,42.47,10.17-18.99,21.06-20.66,27.42-16.18,6.35,4.47,40.12,25.62,43.12-9.24s-18.96-52.2-7.53-57.22c11.44-5.02,4.45-45.39-8.76-31.36-13.21,14.03-41.02,4.68-40.45-6.58.56-11.26-45.01,29.5-25.41,39.57h0Z"/><path class="cls-24" d="m267.77,237.99s1.19-3.73,4.8-4.03,4.69-8.68.81-11.43-6.36-3.36-2.48-7.47,6.35-1.95,4.23-6.23,6.02-8.23,1.49-8.01-5.76-6.94-8.41-2.53-5.44.14-2.1-3.2,5.4-11.04,1.68-8.53-8.52,3.11-9.38,7.07-9.06,3.87-12.56,8.82-9.17,12.94-5.77,13.63,2.96,2.67,3.66,7.17,9.52-2.82,8.02,1.19c-1.5,4-7.86,4.07-5.49,6.89,2.37,2.82,7.33.62,6.31,2.75s-4.31,2.66-2.59,8.46c1.72,5.79,5.17,5.38,7.73,2.62s10.43-2.9,10.06-7.17h0Z"/><path class="cls-2" d="m183.42,239s-4-6.43,0-8.22-9-5.78-10-1.78-8,8-11,7-9.73-5-7.36,3,13.27,3.58,14.32,4.79-.04,13.53,4.5,7.87,2.75-9.08,5.15-7.87,12.94,4.79,8.67,0"/><path class="cls-27" d="m227.07,155.46s-10.08,3.22-16.38-4.3-26.46,3.22-26.46,16.12,2.52,19.34-12.6,17.19c-15.12-2.15-14.22-11-20.34.41s-27.54-.41-19.98,9.26-6.3,23.64,7.56,22.56c13.86-1.07,8.82,11.82-3.78,9.67s-32.76,5.37-21.42,9.67c11.34,4.3,20.16,13.97,30.24,9.67s22.68,13.97,39.06,13.97,42.84,0,39.06-8.6,1.26-10.74,10.08-19.34-21.07-16.64-9.9-19.6,21.25,11,23.77,1.34-10.08-17.19-3.78-18.26c6.3-1.07,12.6,5.37,22.68-7.52s3.79-19.88-6.3-21.22-22.68-18.53-31.5-11.01h-.01Z"/><path class="cls-42" d="m153.69,192.22s-4.46,5.95-8.18,2.23-13.39,1.49-8.93,2.98,5.21,3.72,4.46,5.21-4.13,9.3,3.51,8.74,10.62-5.77,12.11-3.54,9.97-.62,6.47-2.91-2.45-8.46,0-8.72-7.96-8.45-9.45-3.99h0Z"/><path class="cls-42" d="m243.98,119.67s8.85,3.58,12.43,9.79,14.96-2,13.77-4.9,6.81-3.9,6.81-7.9-7.89-5.07-4.95-6.53-3.05-7.47-7.05-3.47-3-7.41-4.5-5.2-8.5,3.2-7.5,8.2-2,5-6,4-3,6-3,6h0Z"/><path class="cls-42" d="m325.11,277.86s8.85,3.58,12.43,9.79,14.96-2,13.77-4.9,6.81-3.9,6.81-7.9-7.89-5.07-4.95-6.53-3.05-7.47-7.05-3.47-3-7.41-4.5-5.2-8.5,3.2-7.5,8.2-2,5-6,4-3,6-3,6h0Z"/><path class="cls-42" d="m434.14,200.66s11.22,2.38,15.75,6.51,18.97-1.33,17.45-3.25,8.63-2.59,8.63-5.25-10.01-3.37-6.27-4.34-3.87-4.96-8.94-2.3-3.8-4.92-5.71-3.46-10.78,2.13-9.51,5.45-2.54,3.32-7.61,2.66-3.8,3.99-3.8,3.99h0Z"/><path class="cls-42" d="m444.11,151.86s8.85,3.58,12.43,9.79,14.96-2,13.77-4.9,6.81-3.9,6.81-7.9-7.89-5.07-4.95-6.53-3.05-7.47-7.05-3.47-3-7.41-4.5-5.2-8.5,3.2-7.5,8.2-2,5-6,4-3,6-3,6h0Z"/><path class="cls-54" d="m265.94,244.1s-2.26-5.24-1.11-9.55-7.31-5.14-8.05-3.32c-.74,1.82-4.62-.96-6.35.88-1.73,1.84,1.2,5.53-.7,5.02s-1.92,4.68,1.54,4.45-1.92,4.63-.32,4.22,5.05,1.97,6.79-.75,3.03-1.5,4.32.59,3.89-1.55,3.89-1.55h-.01Z"/><path class="cls-42" d="m310.61,270.57s-4.17-4.34-4.62-8.83-9.12-2.7-9.17-.73-4.91.49-5.94,2.79,3.23,4.94,1.16,5.03-.17,5.08,3.16,3.81-.18,5.03,1.25,4.15,5.71.35,6.42-2.79,2.44-2.36,4.48-.76,3.27-2.68,3.27-2.68h-.01Z"/><path class="cls-31" d="m236.08,211.53s6.16,2.49,8.64,6.81c2.48,4.32,10.41-1.39,9.58-3.41s4.73-2.71,4.73-5.49-5.49-3.53-3.44-4.55-2.12-5.19-4.91-2.41-2.09-5.15-3.13-3.62-5.91,2.23-5.22,5.71-1.39,3.48-4.17,2.78-2.09,4.17-2.09,4.17h.01Z"/><path class="cls-33" d="m197.02,137.53s2.52,9.21-.24,15.82,10.67,10.68,12.25,7.97,7.23,3.05,10.41.62-.76-9.35,2.19-7.9,4.08-6.96-1.53-7.71,4.07-6.88,1.4-6.73-7.7-4.81-11.07-.98-5.19,1.44-6.82-2.34-6.59,1.26-6.59,1.26h0Z"/><path class="cls-43" d="m204.58,237.95s-4.94,6.59-9.06,2.47-14.83,1.65-9.89,3.3,5.77,4.12,4.94,5.77-4.57,10.31,3.89,9.68,11.76-6.39,13.41-3.92,11.04-.68,7.17-3.23-2.72-9.37,0-9.66-8.82-9.36-10.46-4.41h0Z"/><path class="cls-14" d="m305.75,407.52s-6.21,8.27-11.38,3.1-18.62,2.07-12.41,4.14,7.24,5.17,6.21,7.24-5.74,12.94,4.89,12.16,14.76-8.02,16.83-4.92,13.86-.86,9-4.05-3.41-11.76,0-12.13-11.07-11.75-13.14-5.54h0Z"/><path class="cls-50" d="m335.86,106.19s-5.26,7.01-9.64,2.63-15.77,1.75-10.51,3.5,6.13,4.38,5.26,6.13-4.86,10.96,4.14,10.3,12.51-6.79,14.26-4.16,11.74-.73,7.62-3.43-2.89-9.96,0-10.27-9.37-9.95-11.13-4.69h0Z"/><path class="cls-33" d="m822.32,136.19c.38.63.08,1.83-1.34,3.48-6,7-2,2-6,1s4,4,0,5-4,0-4-3-4,4-6,2,0-5,4-7-8,1-7-1,2-5,9-1-6-4-3-5c2.15-.72,5.84.39,6.35,2.47.3,1.22-.73,1.84-.35,2.53.92,1.65,7.34-1.13,8.34.52Z"/><path class="cls-12" d="m660.71,288.32c.38.63.08,1.83-1.34,3.48-6,7-2,2-6,1s4,4,0,5-4,0-4-3-4,4-6,2,0-5,4-7-8,1-7-1,2-5,9-1-6-4-3-5c2.15-.72,5.84.39,6.35,2.47.3,1.22-.73,1.84-.35,2.53.92,1.65,7.34-1.13,8.34.52Z"/><path class="cls-33" d="m279.71,199.32c.38.63.08,1.83-1.34,3.48-6,7-2,2-6,1s4,4,0,5-4,0-4-3-4,4-6,2,0-5,4-7-8,1-7-1,2-5,9-1-6-4-3-5c2.15-.72,5.84.39,6.35,2.47.3,1.22-.73,1.84-.35,2.53.92,1.65,7.34-1.13,8.34.52Z"/><path class="cls-41" d="m464.71,154.32c.38.63.08,1.83-1.34,3.48-6,7-2,2-6,1s4,4,0,5-4,0-4-3-4,4-6,2,0-5,4-7-8,1-7-1,2-5,9-1-6-4-3-5c2.15-.72,5.84.39,6.35,2.47.3,1.22-.73,1.84-.35,2.53.92,1.65,7.34-1.13,8.34.52Z"/><path class="cls-33" d="m283.71,116.32c.38.63.08,1.83-1.34,3.48-6,7-2,2-6,1s4,4,0,5-4,0-4-3-4,4-6,2,0-5,4-7-8,1-7-1,2-5,9-1-6-4-3-5c2.15-.72,5.84.39,6.35,2.47.3,1.22-.73,1.84-.35,2.53.92,1.65,7.34-1.13,8.34.52Z"/><path class="cls-33" d="m211.71,188.32c.38.63.08,1.83-1.34,3.48-6,7-2,2-6,1s4,4,0,5-4,0-4-3-4,4-6,2,0-5,4-7-8,1-7-1,2-5,9-1-6-4-3-5c2.15-.72,5.84.39,6.35,2.47.3,1.22-.73,1.84-.35,2.53.92,1.65,7.34-1.13,8.34.52Z"/><path class="cls-8" d="m322.42,261s-4-6.43,0-8.22-9-5.78-10-1.78-8,8-11,7-9.73-5-7.36,3,13.27,3.58,14.32,4.79-.04,13.53,4.5,7.87,2.75-9.08,5.15-7.87,12.94,4.79,8.67,0"/><path class="cls-4" d="m417.37,274.46s-6.61-3.7-3.97-7.19-10.67-.72-9.62,3.27-3.14,10.87-6.25,11.44-10.93.32-5,6.18,13.35-3.27,14.85-2.72,6.49,11.87,7.74,4.71-1.98-9.27.71-9.38,13.64-2.05,7.59-4.19"/><path class="cls-13" d="m532.98,172.67c4.46-5.73,5.38-7.64,5-8-.86-.83-7.7,6.9-12,5-2.84-1.26-3.34-6.16-4-6-.79.2.88,7.15-1,8-.65.29-1.15-.4-3-1-2.51-.81-5.69-.84-6,0-.32.86,2.17,3.02,5,4,3.01,1.05,4.34.05,5.39,1.12,2.24,2.28-2.09,8.61-.39,9.88.96.72,3.46-.48,4.89-2.01,1.71-1.82,1.21-3.37,2.5-4.04,2.3-1.19,6.21,2.52,6.61,2.05.44-.53-4.6-4.88-3.96-5.88.76-1.17,8.8,3.26,9.61,2.01.27-.42-.36-1.31-.94-2.01"/><path class="cls-11" d="m678.7,111.48c4.46-5.73,5.38-7.64,5-8-.86-.83-7.7,6.9-12,5-2.84-1.26-3.34-6.16-4-6-.79.2.88,7.15-1,8-.65.29-1.15-.4-3-1-2.51-.81-5.69-.84-6,0-.32.86,2.17,3.02,5,4,3.01,1.05,4.34.05,5.39,1.12,2.24,2.28-2.09,8.61-.39,9.88.96.72,3.46-.48,4.89-2.01,1.71-1.82,1.21-3.37,2.5-4.04,2.3-1.19,6.21,2.52,6.61,2.05.44-.53-4.6-4.88-3.96-5.88.76-1.17,8.8,3.26,9.61,2.01.27-.42-.36-1.31-.94-2.01"/><path class="cls-48" d="m803.7,265.48c4.46-5.73,5.38-7.64,5-8-.86-.83-7.7,6.9-12,5-2.84-1.26-3.34-6.16-4-6-.79.2.88,7.15-1,8-.65.29-1.15-.4-3-1-2.51-.81-5.69-.84-6,0-.32.86,2.17,3.02,5,4,3.01,1.05,4.34.05,5.39,1.12,2.24,2.28-2.09,8.61-.39,9.88.96.72,3.46-.48,4.89-2.01,1.71-1.82,1.21-3.37,2.5-4.04,2.3-1.19,6.21,2.52,6.61,2.05.44-.53-4.6-4.88-3.96-5.88.76-1.17,8.8,3.26,9.61,2.01.27-.42-.36-1.31-.94-2.01"/><path class="cls-2" d="m752.7,329.48c4.46-5.73,5.38-7.64,5-8-.86-.83-7.7,6.9-12,5-2.84-1.26-3.34-6.16-4-6-.79.2.88,7.15-1,8-.65.29-1.15-.4-3-1-2.51-.81-5.69-.84-6,0-.32.86,2.17,3.02,5,4,3.01,1.05,4.34.05,5.39,1.12,2.24,2.28-2.09,8.61-.39,9.88.96.72,3.46-.48,4.89-2.01,1.71-1.82,1.21-3.37,2.5-4.04,2.3-1.19,6.21,2.52,6.61,2.05.44-.53-4.6-4.88-3.96-5.88.76-1.17,8.8,3.26,9.61,2.01.27-.42-.36-1.31-.94-2.01"/><path class="cls-10" d="m724.49,397.44c-3.89,4.44-4.56,5.7-4.09,5.72,1.07.06,7.21-6.24,12.21-6.99,3.3-.49,4.67,1.64,5.36,1.31.83-.4-2.16-3.06-.26-4.19.66-.39,1.32-.25,3.43-.68,2.87-.58,6.32-1.79,6.52-2.31.2-.53-2.87-.6-6.11.02-3.45.66-4.73,1.65-6.05,1.54-2.82-.22.82-4.89-1.23-4.85-1.17.03-3.68,1.56-4.98,2.84-1.55,1.52-.75,2.07-2.04,2.88-2.3,1.45-7.18,1.19-7.53,1.57-.39.42,5.83.55,5.29,1.27-.63.85-10.12,1.84-10.79,2.74-.22.3.62.48,1.36.59"/><path class="cls-9" d="m503.7,87.48c4.46-5.73,5.38-7.64,5-8-.86-.83-7.7,6.9-12,5-2.84-1.26-3.34-6.16-4-6-.79.2.88,7.15-1,8-.65.29-1.15-.4-3-1-2.51-.81-5.69-.84-6,0-.32.86,2.17,3.02,5,4,3.01,1.05,4.34.05,5.39,1.12,2.24,2.28-2.09,8.61-.39,9.88.96.72,3.46-.48,4.89-2.01,1.71-1.82,1.21-3.37,2.5-4.04,2.3-1.19,6.21,2.52,6.61,2.05.44-.53-4.6-4.88-3.96-5.88.76-1.17,8.8,3.26,9.61,2.01.27-.42-.36-1.31-.94-2.01"/><path class="cls-2" d="m318.53,657.43s-4-6.43,0-8.22-9-5.78-10-1.78-8,8-11,7-9.73-5-7.36,3,13.27,3.58,14.32,4.79-.04,13.53,4.5,7.87,2.75-9.08,5.15-7.87,12.94,4.79,8.67,0"/><path class="cls-31" d="m266.39,595.07s5.52,2.01,7.75,5.51,9.33-1.12,8.59-2.75,4.25-2.19,4.25-4.44-4.92-2.85-3.09-3.67-1.91-4.2-4.4-1.95-1.87-4.16-2.81-2.93-5.3,1.8-4.68,4.61-1.25,2.81-3.74,2.25-1.87,3.37-1.87,3.37h0Z"/><path class="cls-33" d="m329.91,574.46c.38.63.08,1.83-1.34,3.48-6,7-2,2-6,1s4,4,0,5-4,0-4-3-4,4-6,2,0-5,4-7-8,1-7-1,2-5,9-1-6-4-3-5c2.15-.72,5.84.39,6.35,2.47.3,1.22-.73,1.84-.35,2.53.92,1.65,7.34-1.13,8.34.52Z"/><path class="cls-13" d="m364.63,571.23c4.46-5.73,5.38-7.64,5-8-.86-.83-7.7,6.9-12,5-2.84-1.26-3.34-6.16-4-6-.79.2.88,7.15-1,8-.65.29-1.15-.4-3-1-2.51-.81-5.69-.84-6,0-.32.86,2.17,3.02,5,4,3.01,1.05,4.34.05,5.39,1.12,2.24,2.28-2.09,8.61-.39,9.88.96.72,3.46-.48,4.89-2.01,1.71-1.82,1.21-3.37,2.5-4.04,2.3-1.19,6.21,2.52,6.61,2.05.44-.53-4.6-4.88-3.96-5.88.76-1.17,8.8,3.26,9.61,2.01.27-.42-.36-1.31-.94-2.01"/><path class="cls-43" d="m321.34,600.99s-4.94,6.59-9.06,2.47-14.83,1.65-9.89,3.3c4.94,1.65,5.77,4.12,4.94,5.77s-4.57,10.31,3.89,9.68,11.76-6.39,13.41-3.92,11.04-.68,7.17-3.23-2.72-9.37,0-9.66-8.82-9.36-10.46-4.41h0Z"/><path class="cls-7" d="m335.98,122.67s-4-6.43,0-8.22-9-5.78-10-1.78-8,8-11,7-9.73-5-7.36,3,13.27,3.58,14.32,4.79-.04,13.53,4.5,7.87,2.75-9.08,5.15-7.87,12.94,4.79,8.67,0"/><path class="cls-27" d="m353.08,149.24s1.18-3.74,4.79-4.05,4.67-8.69.78-11.43-6.37-3.34-2.5-7.46,6.35-1.97,4.21-6.24,5.99-8.25,1.47-8.02-5.78-6.93-8.42-2.5-5.44.16-2.11-3.2,5.36-11.06,1.65-8.54-8.51,3.14-9.36,7.1c-.85,3.96-9.05,3.9-12.54,8.86s-9.13,12.97-5.73,13.65,2.97,2.66,3.68,7.16,9.51-2.85,8.02,1.16c-1.49,4.01-7.85,4.1-5.47,6.91s7.33.6,6.31,2.73-4.31,2.67-2.57,8.46,5.19,5.37,7.74,2.6c2.55-2.77,10.42-2.93,10.04-7.2h.01Z"/><path class="cls-33" d="m334.71,136.32c.38.63.08,1.83-1.34,3.48-6,7-2,2-6,1s4,4,0,5-4,0-4-3-4,4-6,2,0-5,4-7-8,1-7-1,2-5,9-1-6-4-3-5c2.15-.72,5.84.39,6.35,2.47.3,1.22-.73,1.84-.35,2.53.92,1.65,7.34-1.13,8.34.52Z"/><path class="cls-29" d="m439.75,283.32s12.98-2.38,21.19,2.63,34.12-2.68,34-11.46-3.44-13.12,16.1-11.94c19.54,1.19,18.46,7.23,26.25-.65s35.56-.23,25.7-6.67c-9.85-6.45,7.9-16.21-9.98-15.22s-11.5-7.89,4.79-6.65c16.29,1.23,42.24-4.26,27.56-6.98s-26.16-9.14-39.13-6.03-29.41-9.09-50.56-8.79c-21.14.3-55.3.79-50.34,6.57,4.96,5.78-1.52,7.34-12.82,13.35-11.3,6.01,27.36,10.94,12.98,13.16s-27.53-7.1-30.69-.47,13.18,11.52,5.06,12.37-16.32-3.43-29.2,5.54c-12.89,8.96-4.7,13.6,8.33,14.33s29.46,12.2,40.77,6.92h0Z"/><path class="cls-28" d="m303.58,541.15s.73-12.79,16.25-11.79,10.19-28.63-10.18-40.79-32.01-15.8-19.88-28.4c12.12-12.6,25.59-3.37,11.1-20.06-14.49-16.68,16.55-26.25-3.1-28.06-19.64-1.81-33.71-28.38-40.01-13.97s-23.76-2.61-13.09-12.78c10.67-10.16,10.43-36.75-2.91-29.84-13.34,6.92-33.71,6.33-32.74,20.13.97,13.8-35.16,8.76-44.62,24.61-9.46,15.84-24.73,41.44-8.97,45.89s16.25,11.35,24.73,27.99c8.49,16.64,38.45-4.69,36.68,8.9s-29.65,10.17-15.83,21.73,32.98,6.46,31.04,13.57-15.76,7.12-1.21,29.03c14.55,21.91,29.22,22.41,37.16,13.92s42.38-4.46,35.59-20.09h0Z"/><path class="cls-42" d="m422.09,423.19s2.35,9.26-.53,15.81,10.47,10.87,12.1,8.2c1.63-2.68,7.17,3.18,10.39.81s-.59-9.36,2.34-7.85,4.21-6.88-1.38-7.74,4.19-6.8,1.53-6.71-7.61-4.95-11.05-1.19-5.21,1.35-6.78-2.47-6.61,1.13-6.61,1.13h-.01Z"/><path class="cls-33" d="m351.45,448.42c.38.63.08,1.83-1.34,3.48-6,7-2,2-6,1s4,4,0,5-4,0-4-3-4,4-6,2,0-5,4-7-8,1-7-1,2-5,9-1-6-4-3-5c2.15-.72,5.84.39,6.35,2.47.3,1.22-.73,1.84-.35,2.53.92,1.65,7.34-1.13,8.34.52Z"/><path class="cls-26" d="m281.97,476.75s8.85,3.58,12.43,9.79c3.58,6.21,14.96-2,13.77-4.9s6.81-3.9,6.81-7.9-7.89-5.07-4.95-6.53-3.05-7.47-7.05-3.47-3-7.41-4.5-5.2-8.5,3.2-7.5,8.2-2,5-6,4-3,6-3,6h0Z"/><path class="cls-31" d="m172.84,434.73s-6.57.96-10.9-1.51-8.28,6.46-6.54,7.78-2.72,4.73-1.31,7.13,6.52.27,5.27,2.18,4.46,3.41,5.45-.4,4.4,3.39,4.53,1.54,3.98-4.91,1.62-7.56-.56-3.7,2.2-4.51c2.75-.81-.31-4.66-.31-4.66h-.01Z"/><path class="cls-18" d="m228.32,412.27c6.22,6.19,15.52,8.65,24.02,6.82,2.16-.53,4.81-.82,6.51-2.25.03-.1.03.03,0-.12-.35-.68-1.26-1.28-1.67-2.06-1.86-3.99,8.35-3.67,10.47-3.15,7.22,1.43,13.43,7.41,21.1,4.9-5.66,2.79-11.91-.1-17.26-2.1-3.89-1.41-8.47-1.77-12.36-.45-.29.08-.37.33-.24.01.05-.15-.03-.24.02-.16.5.74,1.18,1.01,1.79,2.23.59,1.21-.34,2.5-1.33,3-4.89,2.29-10.47,2.85-15.77,2.12-6.02-.91-11.64-4.11-15.28-8.8h0Z"/><path class="cls-19" d="m314.26,524.23c-6.93-8.41-18.67-14.76-29.19-9.14-2.31,1.28-7.33,3.61-6.98,6.48.13.63.6,1.32,1.18,2.02,1.23,1.38,2.82,3.34,1.29,5.2-2.51,2.46-6.17,3.44-9.59,3.36-9.22-.16-17.68-11.48-26.55-4.55,9.8-9.3,21.08,7.02,31.73,1.74,1.01-.46,1.98-.89,2.72-1.59.26-.25.47-.54.32-.93-.83-1.72-2.59-2.7-3.06-4.85-.66-4.39,4.96-6.93,8.12-8.6,11.36-5.69,23.56,1.11,30,10.84h0v.02Z"/><path class="cls-45" d="m250.6,562.16s-4-6.43,0-8.22c4-1.78-9-5.78-10-1.78s-8,8-11,7-9.73-5-7.36,3,13.27,3.58,14.32,4.79-.04,13.53,4.5,7.87c4.55-5.66,2.75-9.08,5.15-7.87s12.94,4.79,8.67,0"/><path class="cls-46" d="m202.7,403.48c4.46-5.73,5.38-7.64,5-8-.86-.83-7.7,6.9-12,5-2.84-1.26-3.34-6.16-4-6-.79.2.88,7.15-1,8-.65.29-1.15-.4-3-1-2.51-.81-5.69-.84-6,0-.32.86,2.17,3.02,5,4,3.01,1.05,4.34.05,5.39,1.12,2.24,2.28-2.09,8.61-.39,9.88.96.72,3.46-.48,4.89-2.01,1.71-1.82,1.21-3.37,2.5-4.04,2.3-1.19,6.21,2.52,6.61,2.05.44-.53-4.6-4.88-3.96-5.88.76-1.17,8.8,3.26,9.61,2.01.27-.42-.36-1.31-.94-2.01"/><path class="cls-46" d="m220.11,421.72c4.02-3.85,4.85-5.13,4.51-5.38-.77-.56-6.94,4.64-10.82,3.36-2.56-.84-3.02-4.14-3.61-4.03-.72.13.8,4.8-.9,5.38-.59.2-1.04-.27-2.71-.67-2.27-.54-5.13-.57-5.41,0-.29.58,1.96,2.03,4.51,2.69,2.72.71,3.92.03,4.86.75,2.02,1.54-1.88,5.78-.35,6.64.87.49,3.12-.32,4.41-1.35,1.54-1.22,1.09-2.26,2.25-2.71,2.07-.8,5.6,1.7,5.96,1.38.4-.36-4.15-3.28-3.57-3.95.69-.79,7.94,2.19,8.67,1.35.24-.28-.33-.88-.85-1.35"/><path class="cls-46" d="m227.49,521.42c4.46-5.73,5.38-7.64,5-8-.86-.83-7.7,6.9-12,5-2.84-1.26-3.34-6.16-4-6-.79.2.88,7.15-1,8-.65.29-1.15-.4-3-1-2.51-.81-5.69-.84-6,0-.32.86,2.17,3.02,5,4,3.01,1.05,4.34.05,5.39,1.12,2.24,2.28-2.09,8.61-.39,9.88.96.72,3.46-.48,4.89-2.01,1.71-1.82,1.21-3.37,2.5-4.04,2.3-1.19,6.21,2.52,6.61,2.05.44-.53-4.6-4.88-3.96-5.88.76-1.17,8.8,3.26,9.61,2.01.27-.42-.36-1.31-.94-2.01"/><path class="cls-35" d="m380.98,323.67c4.1-10.19,7.81-12.82,10.7-12.94,10.45-.43,17.25,31.85,27.3,30.94,6.22-.56,7.63-13.27,14.78-13.45,1.92-.05,4.38,0,11.44,9.26,7.74,10.17,14.25,14.64,14.75,20.49.17,2.02-.43,4.89-4.11,10.4-11.47,17.17-24.72,15.72-27.86,25.29-4.25,12.97,16.62,25.03,11.39,36.23-2.88,6.17-9.8,3.65-19.39,12.77-9.56,9.09-9.31,17.88-13.82,17.96-7.91.14-13.24-26.75-20.18-25.96-2.17.25-2.11,3-5,4-6.83,2.36-20.63-8.32-20.74-18.86-.08-7.94,7.62-14.25,4.74-18.14-.58-.79-1.39-1.19-3-2-2.91-1.46-5.33-1.53-8.62-1.8-5.97-.49-8.93-.78-10.23-1.57-1.96-1.19-3.45-4.1-4.03-11.04-1.91-22.98,2.48-26.2,12.15-30.49,11.89-5.29,4.46-24.7,9.83-26.45,3.89-1.27,7.72,6.53,12.9,5.35,3.78-.86,5.85-5.95,7-10h0Z"/><path class="cls-24" d="m344.58,344.83s3.81.91,4.38,4.49,9.01,4.04,11.46-.04c2.45-4.07,2.88-6.59,7.27-3.02s2.42,6.19,6.53,3.76,8.66,5.39,8.1.89,6.49-6.26,1.89-8.57-.55-5.42,3.04-2.33,11.41,4.56,8.63,1.04-3.74-8.26-7.75-8.83c-4.01-.57-4.54-8.74-9.73-11.87s-13.59-8.18-14.02-4.74-2.44,3.15-6.88,4.18,3.52,9.28-.59,8.08c-4.1-1.2-4.64-7.53-7.28-4.96-2.64,2.57-.07,7.36-2.28,6.49s-2.97-4.1-8.62-1.96-4.98,5.56-2.04,7.91,3.67,10.19,7.9,9.5v-.02Z"/><path class="cls-33" d="m354.59,269c.38.63.08,1.83-1.34,3.48-6,7-2,2-6,1s4,4,0,5-4,0-4-3-4,4-6,2,0-5,4-7-8,1-7-1,2-5,9-1-6-4-3-5c2.15-.72,5.84.39,6.35,2.47.3,1.22-.73,1.84-.35,2.53.92,1.65,7.34-1.13,8.34.52Z"/><path class="cls-54" d="m350.13,253.44s-2.26-5.24-1.11-9.55-7.31-5.14-8.05-3.32-4.62-.96-6.35.88,1.2,5.53-.7,5.02-1.92,4.68,1.54,4.45-1.92,4.63-.32,4.22,5.05,1.97,6.79-.75,3.03-1.5,4.32.59,3.89-1.55,3.89-1.55h-.01Z"/><path class="cls-33" d="m373.56,237.81c.38.63.08,1.83-1.34,3.48-6,7-2,2-6,1s4,4,0,5-4,0-4-3-4,4-6,2,0-5,4-7-8,1-7-1,2-5,9-1-6-4-3-5c2.15-.72,5.84.39,6.35,2.47.3,1.22-.73,1.84-.35,2.53.92,1.65,7.34-1.13,8.34.52Z"/><path class="cls-30" d="m219.51,282.22c-.45.23-.55.37-.53.45.11.47,4.26-.69,5.18.77.33.53-.08.89.3,1.7.42.89,1.51,1.72,2.51,1.54,1.51-.27,1.94-2.66,2-3,.2-1.21-.25-1.4,0-2,.82-1.97,6.01-.66,6.82-2.5.34-.77-.17-1.88-.82-2.5-2.08-2.02-5.91.84-8-1-1.63-1.43-.33-4.06-2-5-1.22-.69-3.41-.12-4,1-.46.87-.02,2.2-1,3-.04.03-.07.06-.1.08-.95.7-1.75.29-2.34.72-.36.26-.59.78-.56,1.21.09,1.28,2.44,1.44,3,3,.17.48.24,1.28-.47,2.55v-.02Z"/><path class="cls-57" d="m261.46,268.08s1.83-3.72,5.55-5.59-1.97-5.66-3.74-4.97-2.77-2.34-5.29-2.03-2.8,3.46-3.87,2.43-4.54,1.77-1.84,3.01-4.51,1.74-3.05,2.15,2.42,3.05,5.51,2.28,3.24.39,2.8,2.02,3.91.7,3.91.7h.02Z"/><path class="cls-40" d="m759.06,306.95s11.22,2.38,15.75,6.51,18.97-1.33,17.45-3.25,8.63-2.59,8.63-5.25-10.01-3.37-6.27-4.34-3.87-4.96-8.94-2.3-3.8-4.92-5.71-3.46-10.78,2.13-9.51,5.45-2.54,3.32-7.61,2.66-3.8,3.99-3.8,3.99h.01Z"/><path class="cls-27" d="m692.12,357.25s-11.46-.49-16.61-3.81c-5.15-3.32-18.49,4.45-16.68,6.1s-8.08,3.98-7.64,6.6,10.42,1.66,6.9,3.24,4.64,4.25,9.2.79,4.57,4.22,6.2,2.46,10.28-3.88,8.47-6.95,1.95-3.7,7.06-3.88,3.09-4.56,3.09-4.56h0Z"/><path class="cls-6" d="m826.42,231s-4-6.43,0-8.22-9-5.78-10-1.78-8,8-11,7-9.73-5-7.36,3c2.36,8,13.27,3.58,14.32,4.79s-.04,13.53,4.5,7.87,2.75-9.08,5.15-7.87,12.94,4.79,8.67,0"/><path class="cls-6" d="m810.6,221.62s2.48,7.16-1.82,8.01c-4.3.86,7.5,7.63,9.36,3.95s9.57-6.03,12.28-4.39,8.38,7.03,7.85-1.3c-.54-8.32-12.15-6.43-12.9-7.84s3.03-13.18-2.65-8.67c-5.68,4.51-4.69,8.24-6.76,6.53s-11.56-7.53-8.45-1.92"/><path class="cls-17" d="m650.91,311.79c6.4-1.67,13.46-.83,19.33,2.25,1.49.71,2.92,1.54,4.33,2.08,3.44,1.65,7.16-1.55,7.38-4.95-.15-2.04-3.12-1.89-4.6-2.73-.43-.2-.95-.81-.82-1.46.12-.61.42-.84.8-1.12,1.39-.82,2.97-1.05,4.5-1.3,4.96-.83,9.97.09,14.81.97,4.82.66,9.67-.03,14.34-1.44-4.48,2.01-9.52,3.1-14.48,2.75-4.82-.55-9.6-1.33-14.39-.4-1.25.24-2.6.43-3.69,1.04-.12.04-.07.17.04-.21.03-.17-.05-.47-.19-.56,2.22.73,5.69,1.31,5.65,4.42-.13,4.76-5.5,8.9-10,6.62-1.62-.67-2.98-1.56-4.41-2.32-5.63-3.25-12.15-4.47-18.61-3.63h0Z"/><path class="cls-20" d="m435.34,254.55c3.7-4.17,9.21-7.35,15-7.03,4.65.05,8.89,2.89,13.46,2.53,3.19-.55,6.33-3.05,7.28-6.16.09-.62.16-1.04-.39-1.38-1.37-.73-3.36-.58-5.04-.75-.64-.06-1.59-.18-1.93-.93-.25-.52,0-1.2.4-1.55,1.11-.94,2.55-1.35,3.84-1.81,5.39-1.82,11.15-2.43,16.79-2.14,5.58.1,10.82-2.17,15.24-5.55-2.69,2.59-5.95,4.64-9.57,5.86-3.58,1.25-7.51.96-11.19,1.25-4.63.55-9.65,1.53-13.76,3.79-.04.03,0,0,0,0,.01-.05.06-.1.07-.17.05-.27-.05-.58-.28-.74-.08-.05-.05-.02.02-.01,2.48.44,6.59-.43,7.72,2.71.77,4.48-4.93,9-8.99,9.4-2.96.29-5.86-.89-8.5-1.79-7.23-2.91-14.61-.67-20.18,4.49h0v-.02Z"/><path class="cls-32" d="m499.76,271.27s-11.1-2.89-15.44-7.22-19.01.46-17.59,2.45-8.74,2.19-8.86,4.85,9.84,3.82,6.06,4.63,3.64,5.13,8.83,2.71,3.57,5.09,5.54,3.72,10.86-1.63,9.75-5.01,2.69-3.2,7.72-2.31,3.98-3.81,3.98-3.81h0Z"/><path class="cls-23" d="m423.58,359.64c-12.49,6.46-20.11,17.73-13.79,31.57,1.83,4,3.35,3.47,6.58,1.74,1.52-.79,3.34-.77,4.31.93,2.49,4.81,1.38,10.81-1.72,15.04-4.12,6-11.67,11.55-7.83,19.52-7.28-12.86,14.41-19.61,7.91-33.53-.66-1.23-2.15.07-3.09.44-3.68,2.16-6.45.25-7.93-3.34-6.53-14.58,1.68-26.96,15.56-32.38h0Z"/><path class="cls-49" d="m430.98,348.67c.75.36,1.7.99,2,2,1.2,4-9.1,9.4-8,12,.72,1.69,5.27-.18,9,3,.58.49,2.62,2.24,2.62,4.57,0,2.75-2.85,4.23-2.21,5.69.51,1.17,2.42.41,3.59,1.74,2.01,2.28-.95,7.54.18,8.14.33.17.72-.19,1.3-.49,3.44-1.78,7.64,1.44,8.52.36.88-1.08-2.95-4.77-2-6,.49-.63,2.09-.4,3.16.27,1.24.78,2.8,2.11,2.27,4.53-1.01,4.62,1.41,12.21,3.19,8.09,1.53-3.54,2.57-5.18,4.09-11.02,2.17-8.36,8.49-9.7,7.3-13.87-.84-2.94-4.06-2.56-5-6-1.09-3.97,2.23-8.07,1.03-8.92-.56-.4-1.16.62-2.41.31-1.48-.37-2.46-2.01-4.54-4.37-.47-.54-.85-.66-1.08-.66-2.62.04-3.56,12.71-5,12.64-.83-.04-2.3-4.35-1.31-8.66.84-3.68,3.22-6.27,2.02-7.98-.09-.12-.48-.68-1.11-.79-.36-.06-1.67-.11-6.59,6.43-.4.53-.81,1.09-1,1-.59-.26,2.85-5.75,1.15-10.87-.76-2.27-2.23-3.57-2.72-4-2.26-1.95-4.06-2.4-5.38-1.91-.57.21-1.58.82-2.54,3.87-.66,2.1-1.45,5.82-.5,10.9h-.03Z"/><path class="cls-31" d="m509.9,160.03s-.67-9.53,3.34-15.47-8.37-12.56-10.45-10.22-6.49-4.4-10.08-2.64-1.09,9.32-3.7,7.31-5.36,6.02-.01,7.86-5.33,5.95-2.7,6.33,6.61,6.23,10.66,3.13,5.37-.4,6.23,3.63,6.71.06,6.71.06h0Z"/><path class="cls-42" d="m517.98,89.2s4.87,1.03,6.84,2.82,8.23-.58,7.58-1.41,3.75-1.12,3.75-2.28-4.34-1.46-2.72-1.88-1.68-2.15-3.88-1-1.65-2.14-2.48-1.5-4.68.92-4.13,2.37-1.1,1.44-3.3,1.15-1.65,1.73-1.65,1.73h-.01Z"/><path class="cls-21" d="m556.52,80.34s-6.44,1.21-9.74.02-9.71,4.86-8.49,5.54-3.98,3.26-3.4,4.66,6.02-.42,4.26.92,3.13,1.77,5.22-.75,3.09,1.76,3.77.57,5.22-3.49,3.82-4.96.61-2.31,3.43-3.07,1.13-2.94,1.13-2.94h0Z"/><path class="cls-15" d="m573.12,192.52c-2.99-6-2.9-12.95,4.05-15.94,5.53-2.5,12.01-2.46,17.52-4.51,3.4-1.17,6.66-3.9,7.05-7.55,0-1.06-.55-1.17-1.08-2.32-.34-.69-.14-1.7.24-2.29,1.49-2.33,4.02-3.65,6.17-5.05,3.49-2.13,7.28-3.8,11.09-5.12,7.67-2.5,14.54-6.66,20.29-12.34-3.9,4.62-8.71,8.62-14.15,11.35-5.42,2.63-11.21,4.36-16.23,7.72-1.66,1.05-3.38,2.16-4.69,3.42-.65.6-1.07,1.44-.89,1.55.05.18.44.61.76,1.16,1,1.63.27,3.81-.5,5.25-6.97,13.79-37.39,1.07-29.62,24.66h0Z"/><path class="cls-39" d="m680.93,53.37s1.18-3.74,4.79-4.05,4.67-8.69.78-11.43-6.37-3.34-2.5-7.46,6.35-1.97,4.21-6.24,5.99-8.25,1.47-8.02-5.78-6.93-8.42-2.5-5.44.16-2.11-3.2,5.36-11.06,1.65-8.54-8.51,3.14-9.36,7.1-9.05,3.9-12.54,8.86-9.13,12.97-5.73,13.65,2.97,2.66,3.68,7.16c.71,4.5,9.51-2.85,8.02,1.16-1.49,4.01-7.85,4.1-5.47,6.91s7.33.6,6.31,2.73-4.31,2.67-2.57,8.46,5.19,5.37,7.74,2.6c2.55-2.77,10.42-2.93,10.04-7.2h0Z"/><path class="cls-27" d="m593.64,53.18s-3.44-5.14-1.35-9.86-6.7-14.32-12.44-12.28-8.1,4.47-10.15-4.34,2.06-9.71-4.23-11.33-5.3-15.5-8.1-9.73-11.76.2-8.53,7.8c3.24,7.6-3.5,6.81-5.05-.59-1.55-7.4-8.91-17.51-8.56-10.47.35,7.04-2.2,13.5,1.72,18.47,3.92,4.97-1.69,14.92,1.57,24.09,3.26,9.18,8.53,24.01,11.6,20.53s5.03-.99,10.61,2.59,3.2-14.44,6.74-8.65-.66,13.64,4.14,13.53c4.8-.12,5.64-8.36,7.37-5s.12,7.91,7.86,11.52,9.59-1.02,8.18-6.88c-1.41-5.86,3.72-15.64-1.38-19.39h0Z"/><path class="cls-36" d="m666.78,49.8s13.73,2.91,19.28,7.96,23.21-1.63,21.36-3.98,10.56-3.17,10.56-6.42-12.24-4.12-7.67-5.31-4.74-6.07-10.94-2.82-4.65-6.02-6.98-4.23-13.19,2.6-11.64,6.67c1.55,4.07-3.1,4.07-9.31,3.25s-4.65,4.88-4.65,4.88h-.01Z"/><path class="cls-41" d="m662.4,53.49c.38.63.08,1.83-1.34,3.48-6,7-2,2-6,1s4,4,0,5-4,0-4-3-4,4-6,2,0-5,4-7-8,1-7-1,2-5,9-1-6-4-3-5c2.15-.72,5.84.39,6.35,2.47.3,1.22-.73,1.84-.35,2.53.92,1.65,7.34-1.13,8.34.52Z"/><path class="cls-58" d="m311.26,222.28s-.81-6.7,2.8-13.6-8.03-4.24-9.92-1.21-6.12.7-9.43,4.22-.83,7.62-3.3,7.73-4.87,7.79.14,5.88c5.01-1.92-4.85,7.72-2.38,6.38s6.27.59,9.98-4.21,4.99-3.6,5.87-1.12,6.24-4.08,6.24-4.08h0Z"/><path class="cls-58" d="m604.76,221.5s-.47-6.38,3.28-13.14-7.45-3.69-9.39-.71-5.86.95-9.17,4.47-1.13,7.34-3.49,7.55-4.99,7.68-.13,5.62-4.96,7.61-2.56,6.22,5.94.28,9.69-4.49c3.75-4.76,4.91-3.67,5.63-1.33s6.13-4.19,6.13-4.19h0Z"/><path class="cls-5" d="m687.16,94.32s-7.35-7.44,0-9.5-16.53-6.69-18.36-2.06-14.69,9.25-20.2,8.1-17.86-5.78-13.52,3.47c4.34,9.25,24.36,4.15,26.29,5.54s-.08,15.65,8.27,9.1c8.35-6.55,5.05-10.5,9.45-9.1s23.76,5.54,15.92,0"/><path class="cls-5" d="m654.98,80.67c.11.43.24,1.18,0,2-.7,2.35-3.64,2.37-4,4-.49,2.23,4.42,4.66,3.8,6.06-.31.69-1.65.49-1.71.76-.49,2.18,15.95,7.47,18.89,3.81,3.41-4.26,17.57-6.98,22.54-5.08s15.39,8.13,14.41-1.5c-.99-9.63-22.31-7.44-23.69-9.07-1.39-1.63,5.57-15.25-4.87-10.03s-8.61,9.54-12.41,7.56c-3.86-2.01-15.6-6-16.59-4.51-.25.38.03,1.34,2.63,4"/><path class="cls-22" d="m718.62,449.93s-6.76-11.52,4.26-20.74-9.37-31.35-29.98-28.64c-20.61,2.72-30.52,7.12-29.49-11.63,1.02-18.76,15.33-19.53-3.89-24.54-19.22-5.01-3.74-33.43-17.99-22.24s-38.79-2.65-34.87,13.9c3.93,16.55-17.49,13.17-16.06-2.54,1.43-15.71-13.81-38.53-18.88-23.9-5.06,14.63-19.11,27.35-10.64,38.65,8.48,11.3-18.71,30.4-16.1,50.23,2.61,19.83,6.83,51.86,19.97,45.48s17.38-.74,32.53,8.13,23.24-29.01,29.76-16.12-14.21,28.04,1.66,29.05c15.86,1.01,25.88-15.82,28.6-8.42s-6.58,16.39,15.64,25.87c22.22,9.49,32.38.4,32.92-12.09.54-12.49,26.01-31.36,12.58-40.46h-.02Z"/><path class="cls-44" d="m581.51,407.77c3.6-8.33,6.87-10.48,9.41-10.57,9.19-.35,15.17,26.02,24.01,25.28,5.47-.46,6.71-10.85,13-10.99,1.69-.04,3.86,0,10.06,7.57,6.81,8.31,12.53,11.96,12.98,16.74.15,1.65-.38,4-3.61,8.5-10.09,14.03-21.74,12.85-24.5,20.66-3.74,10.6,14.61,20.45,10.02,29.6-2.53,5.04-8.62,2.99-17.05,10.43-8.41,7.42-8.19,14.61-12.15,14.68-6.95.11-11.64-21.86-17.75-21.21-1.91.2-1.85,2.45-4.4,3.27-6.01,1.93-18.14-6.79-18.24-15.41-.07-6.49,6.7-11.64,4.17-14.82-.51-.64-1.22-.97-2.64-1.63-2.56-1.19-4.68-1.25-7.58-1.47-5.25-.4-7.86-.64-9-1.28-1.72-.97-3.04-3.35-3.55-9.02-1.68-18.77,2.18-21.4,10.69-24.91,10.46-4.32,3.93-20.18,8.65-21.61,3.42-1.04,6.79,5.33,11.34,4.37,3.32-.7,5.15-4.86,6.16-8.17h-.02Z"/><path class="cls-39" d="m585.64,513.1s2.11,11.28.04,17.05,8.51,17.01,9.7,14.87,5.7,6.97,8.16,5.95-.73-10.53,1.6-7.46,3.09-5.48-1.31-9.14,3.08-5.4,1-6.6-6.1-9.13-8.68-6.69-4.04-1.07-5.37-6-5.14-1.98-5.14-1.98h0Z"/><path class="cls-3" d="m730.3,281.58s-4-6.43,0-8.22-9-5.78-10-1.78-8,8-11,7-9.73-5-7.36,3c2.36,8,13.27,3.58,14.32,4.79s-.04,13.53,4.5,7.87,2.75-9.08,5.15-7.87,12.94,4.79,8.67,0"/><path class="cls-3" d="m714.48,272.2s2.48,7.16-1.82,8.01c-4.3.86,7.5,7.63,9.36,3.95s9.57-6.03,12.28-4.39,8.38,7.03,7.85-1.3c-.54-8.32-12.15-6.43-12.9-7.84s3.03-13.18-2.65-8.67c-5.68,4.51-4.69,8.24-6.76,6.53s-11.56-7.53-8.45-1.92"/><path class="cls-49" d="m594.26,362.18c.75.36,1.7.99,2,2,1.2,4-9.1,9.4-8,12,.72,1.69,5.27-.18,9,3,.58.49,2.62,2.24,2.62,4.57,0,2.75-2.85,4.23-2.21,5.69.51,1.17,2.42.41,3.59,1.74,2.01,2.28-.95,7.54.18,8.14.33.17.72-.19,1.3-.49,3.44-1.78,7.64,1.44,8.52.36.88-1.08-2.95-4.77-2-6,.49-.63,2.09-.4,3.16.27,1.24.78,2.8,2.11,2.27,4.53-1.01,4.62,1.41,12.21,3.19,8.09,1.53-3.54,2.57-5.18,4.09-11.02,2.17-8.36,8.49-9.7,7.3-13.87-.84-2.94-4.06-2.56-5-6-1.09-3.97,2.23-8.07,1.03-8.92-.56-.4-1.16.62-2.41.31-1.48-.37-2.46-2.01-4.54-4.37-.47-.54-.85-.66-1.08-.66-2.62.04-3.56,12.71-5,12.64-.83-.04-2.3-4.35-1.31-8.66.84-3.68,3.22-6.27,2.02-7.98-.09-.12-.48-.68-1.11-.79-.36-.06-1.67-.11-6.59,6.43-.4.53-.81,1.09-1,1-.59-.26,2.85-5.75,1.15-10.87-.76-2.27-2.23-3.57-2.72-4-2.26-1.95-4.06-2.4-5.38-1.91-.57.21-1.58.82-2.54,3.87-.66,2.1-1.45,5.82-.5,10.9h-.03Z"/><path class="cls-16" d="m696.82,413.8c6.35,2.14,11.2,7.12,8.39,14.14-2.65,7.41-10.18,12.88-10.52,20.95.12,1.84.62,4.7,2.47,5.44.56.11,2.14.31,2.58,1.18.58.85.65,1.85.66,2.76-.07,2.2-.53,4.17-1.01,6.16-1.73,7.97-6.64,14.72-8.43,22.62-.98,3.87-1.36,7.88-1.46,11.9-.5-6.03.08-12.25,2.01-18.03,1.98-5.69,4.85-11,6.04-16.93.43-1.92.87-3.91.9-5.74.04-.89-.26-1.77-.47-1.72-.17-.09-.75-.12-1.35-.29-1.86-.45-2.88-2.51-3.36-4.07-4.8-14.69,25.72-27.17,3.56-38.37h-.01Z"/><path class="cls-40" d="m469.18,518.11s11.22,2.38,15.75,6.51,18.97-1.33,17.45-3.25,8.63-2.59,8.63-5.25-10.01-3.37-6.27-4.34-3.87-4.96-8.94-2.3-3.8-4.92-5.71-3.46-10.78,2.13-9.51,5.45-2.54,3.32-7.61,2.66-3.8,3.99-3.8,3.99h0Z"/><path class="cls-6" d="m525.93,553.79s-4-6.43,0-8.22-9-5.78-10-1.78-8,8-11,7-9.73-5-7.36,3c2.36,8,13.27,3.58,14.32,4.79s-.04,13.53,4.5,7.87,2.75-9.08,5.15-7.87,12.94,4.79,8.67,0"/><path class="cls-6" d="m510.11,544.41s2.48,7.16-1.82,8.01,7.5,7.63,9.36,3.95,9.57-6.03,12.28-4.39,8.38,7.03,7.85-1.3c-.54-8.32-12.15-6.43-12.9-7.84s3.03-13.18-2.65-8.67c-5.68,4.51-4.69,8.24-6.76,6.53s-11.56-7.53-8.45-1.92"/><path class="cls-33" d="m418.23,567.75c.38.63.08,1.83-1.34,3.48-6,7-2,2-6,1s4,4,0,5-4,0-4-3-4,4-6,2,0-5,4-7-8,1-7-1,2-5,9-1-6-4-3-5c2.15-.72,5.84.39,6.35,2.47.3,1.22-.73,1.84-.35,2.53.92,1.65,7.34-1.13,8.34.52Z"/><path class="cls-36" d="m1008.23,345.57s13.73,2.91,19.28,7.96,23.21-1.63,21.36-3.98,10.56-3.17,10.56-6.42-12.24-4.12-7.67-5.31-4.74-6.07-10.94-2.82c-6.21,3.25-4.65-6.02-6.98-4.23s-13.19,2.6-11.64,6.67c1.55,4.07-3.1,4.07-9.31,3.25-6.21-.81-4.65,4.88-4.65,4.88h-.01Z"/><path class="cls-48" d="m1058.92,310.7c5.83,4.88,7.8,5.93,8.22,5.58.94-.79-6.86-8.19-4.52-12.34,1.54-2.74,6.82-2.88,6.7-3.55-.16-.81-7.71.35-8.49-1.59-.27-.67.51-1.12,1.28-2.92,1.04-2.45,1.29-5.61.41-5.99-.9-.38-3.38,1.95-4.62,4.69-1.33,2.93-.35,4.33-1.57,5.3-2.6,2.07-9.06-2.72-10.54-1.12-.84.9.27,3.49,1.82,5.03,1.83,1.84,3.52,1.46,4.15,2.79,1.12,2.38-3.13,6.01-2.65,6.44.54.48,5.54-4.23,6.56-3.51,1.2.85-4.09,8.54-2.81,9.44.43.3,1.43-.27,2.21-.79"/><path class="cls-33" d="m1104.09,365.66c.38.63.08,1.83-1.34,3.48-6,7-2,2-6,1s4,4,0,5-4,0-4-3-4,4-6,2,0-5,4-7-8,1-7-1,2-5,9-1-6-4-3-5c2.15-.72,5.84.39,6.35,2.47.3,1.22-.73,1.84-.35,2.53.92,1.65,7.34-1.13,8.34.52Z"/><path class="cls-48" d="m1023.52,428.03c2.28-2.88,2.75-3.84,2.55-4.02-.44-.42-3.93,3.47-6.13,2.51-1.45-.63-1.71-3.1-2.04-3.02-.4.1.45,3.6-.51,4.02-.33.15-.59-.2-1.53-.5-1.28-.41-2.9-.42-3.06,0-.16.43,1.11,1.52,2.55,2.01,1.54.53,2.22.03,2.75.56,1.14,1.15-1.07,4.33-.2,4.97.49.36,1.77-.24,2.5-1.01.87-.92.62-1.69,1.28-2.03,1.17-.6,3.17,1.27,3.38,1.03.23-.27-2.35-2.46-2.02-2.96.39-.59,4.5,1.64,4.91,1.01.14-.21-.19-.66-.48-1.01"/><path class="cls-49" d="m1012.73,341.19c.52.64,1.13,1.61.98,2.65-.59,4.14-12.21,4.73-12.29,7.55-.06,1.84,4.86,2.04,6.92,6.49.32.69,1.44,3.13.47,5.24-1.15,2.49-4.36,2.64-4.39,4.25-.02,1.28,2.02,1.39,2.53,3.08.87,2.91-4.02,6.45-3.24,7.46.22.29.73.13,1.39.1,3.87-.18,6.33,4.5,7.58,3.89,1.25-.62-.68-5.57.7-6.29.71-.37,2.07.51,2.75,1.57.8,1.23,1.65,3.09.16,5.07-2.85,3.78-3.83,11.68-.49,8.68,2.87-2.57,4.51-3.63,8.32-8.29,5.47-6.68,11.77-5.25,12.44-9.54.47-3.02-2.61-4.03-2.03-7.54.68-4.06,5.4-6.4,4.68-7.67-.34-.6-1.31.08-2.32-.73-1.18-.96-1.39-2.85-2.29-5.87-.21-.68-.5-.96-.71-1.05-2.39-1.06-8.55,10.05-9.84,9.39-.74-.38-.26-4.91,2.44-8.41,2.31-2.99,5.55-4.34,5.18-6.4-.03-.15-.15-.82-.68-1.18-.3-.2-1.47-.8-8.68,3.08-.58.31-1.19.65-1.33.49-.43-.49,5-4.03,5.59-9.39.26-2.38-.53-4.18-.8-4.77-1.24-2.72-2.68-3.88-4.09-3.99-.6-.04-1.78.09-3.93,2.45-1.48,1.63-3.76,4.68-5.02,9.69h0Z"/><path class="cls-55" d="m876.14,341.26s-.81-6.7,2.8-13.6-8.03-4.24-9.92-1.21-6.12.7-9.43,4.22-.83,7.62-3.3,7.73-4.87,7.79.14,5.88c5.01-1.92-4.85,7.72-2.38,6.38s6.27.59,9.98-4.21c3.71-4.8,4.99-3.6,5.87-1.12s6.24-4.08,6.24-4.08h0Z"/><path class="cls-27" d="m788.19,428.91s-11.46-.49-16.61-3.81c-5.15-3.32-18.49,4.45-16.68,6.1s-8.08,3.98-7.64,6.6,10.42,1.66,6.9,3.24,4.64,4.25,9.2.79,4.57,4.22,6.2,2.46,10.28-3.88,8.47-6.95,1.95-3.7,7.06-3.88,3.09-4.56,3.09-4.56h0Z"/><path class="cls-33" d="m566.66,316.48c.38.63.08,1.83-1.34,3.48-6,7-2,2-6,1s4,4,0,5-4,0-4-3-4,4-6,2,0-5,4-7-8,1-7-1,2-5,9-1-6-4-3-5c2.15-.72,5.84.39,6.35,2.47.3,1.22-.73,1.84-.35,2.53.92,1.65,7.34-1.13,8.34.52Z"/><path class="cls-1" d="m200.28,354.45c1.2-6.09.76-7.88,0-8.22-1.68-.73-4.54,5.78-8.3,5.44-4.3-.39-6.42-9.44-8-9-1.49.42.73,8.37-3,11-1.55,1.09-3.11.55-4,2-1.03,1.66-.3,4.54,1,5,1.26.45,2.19-1.71,5-2,.63-.07,2.14-.22,3.25.57,2.91,2.06.67,8.92,2.31,9.32.53.13,1.24-.26,2.19-1.46,4.55-5.66,2.75-9.08,5.15-7.87,1.9.96,8.88,3.39,9.61,2.01.13-.24.11-.73-.94-2.01"/><path class="cls-42" d="m818.38,546.09s8.85,3.58,12.43,9.79,14.96-2,13.77-4.9,6.81-3.9,6.81-7.9-7.89-5.07-4.95-6.53-3.05-7.47-7.05-3.47-3-7.41-4.5-5.2-8.5,3.2-7.5,8.2-2,5-6,4-3,6-3,6h-.01Z"/><path class="cls-42" d="m803.87,538.8s-4.17-4.34-4.62-8.83-9.12-2.7-9.17-.73-4.91.49-5.94,2.79,3.23,4.94,1.16,5.03-.17,5.08,3.16,3.81c3.33-1.27-.18,5.03,1.25,4.15s5.71.35,6.42-2.79,2.44-2.36,4.48-.76,3.27-2.68,3.27-2.68h0Z"/><path class="cls-33" d="m772.98,467.55c.38.63.08,1.83-1.34,3.48-6,7-2,2-6,1s4,4,0,5-4,0-4-3-4,4-6,2,0-5,4-7-8,1-7-1,2-5,9-1-6-4-3-5c2.15-.72,5.84.39,6.35,2.47.3,1.22-.73,1.84-.35,2.53.92,1.65,7.34-1.13,8.34.52Z"/><path class="cls-8" d="m815.68,529.23s-4-6.43,0-8.22-9-5.78-10-1.78-8,8-11,7-9.73-5-7.36,3c2.36,8,13.27,3.58,14.32,4.79s-.04,13.53,4.5,7.87,2.75-9.08,5.15-7.87,12.94,4.79,8.67,0"/><path class="cls-33" d="m847.86,537.23c.38.63.08,1.83-1.34,3.48-6,7-2,2-6,1s4,4,0,5-4,0-4-3-4,4-6,2,0-5,4-7-8,1-7-1,2-5,9-1-6-4-3-5c2.15-.72,5.84.39,6.35,2.47.3,1.22-.73,1.84-.35,2.53.92,1.65,7.34-1.13,8.34.52Z"/><path class="cls-54" d="m843.4,521.67s-2.26-5.24-1.11-9.55-7.31-5.14-8.05-3.32-4.62-.96-6.35.88,1.2,5.53-.7,5.02-1.92,4.68,1.54,4.45-1.92,4.63-.32,4.22,5.05,1.97,6.79-.75,3.03-1.5,4.32.59,3.89-1.55,3.89-1.55h-.01Z"/><path class="cls-33" d="m866.83,506.04c.38.63.08,1.83-1.34,3.48-6,7-2,2-6,1s4,4,0,5-4,0-4-3-4,4-6,2,0-5,4-7-8,1-7-1,2-5,9-1-6-4-3-5c2.15-.72,5.84.39,6.35,2.47.3,1.22-.73,1.84-.35,2.53.92,1.65,7.34-1.13,8.34.52Z"/><path class="cls-58" d="m804.53,490.5s-.81-6.7,2.8-13.6-8.03-4.24-9.92-1.21-6.12.7-9.43,4.22-.83,7.62-3.3,7.73-4.87,7.79.14,5.88c5.01-1.92-4.85,7.72-2.38,6.38s6.27.59,9.98-4.21c3.71-4.8,4.99-3.6,5.87-1.12s6.24-4.08,6.24-4.08h0Z"/><path class="cls-56" d="m790.04,503.88s-17.75,3.88-27.64.06c-9.89-3.83-25.37,15.69-21.6,17.89,3.78,2.21-9.83,10.52-7.54,15.05,2.29,4.53,16.89-1.34,12.51,2.96-4.38,4.3,9.69,5.72,14.49-2.4s9.56,5.7,10.96,1.86,13.23-11.25,8.59-16.02c-4.64-4.77.68-7.46,8.34-9.91,7.66-2.46,1.88-9.49,1.88-9.49h0Z"/><path class="cls-42" d="m667.51,471.05s6.73-6.78,13.84-7.67,3.95-14.57.81-14.59-.96-7.78-4.65-9.33-7.73,5.31-7.94,2.03-8.07-.07-5.93,5.16-7.99-.1-6.54,2.14-.34,9.08,4.66,10.09,3.84,3.78,1.37,7.08c-2.47,3.3,4.37,5.09,4.37,5.09h.01Z"/><path class="cls-42" d="m655.17,481.6s-5.61,2.16-9.93.85c-4.32-1.32-6.02,7.36-4.22,8.18s-1.45,4.72.27,6.56,5.81-1.07,5.09.88,4.62,2.12,4.73-1.44c.12-3.56,4.57,2.11,4.31.45s2.53-5.13-.08-7-1.23-3.16,1.04-4.42-1.2-4.05-1.2-4.05h-.01Z"/><path class="cls-8" d="m650.92,467.01s-7.48,1.2-7.58-3.18-8.82,6.06-5.52,8.53,4.28,10.47,2.2,12.85-8.38,7.04-.08,7.95,8.44-10.85,9.96-11.35,12.45,5.28,9-1.11-7.3-6.05-5.26-7.79,9.43-10.08,3.35-7.99"/><path class="cls-33" d="m670.75,440.44c.73-.11,1.72.63,2.7,2.58,4.13,8.24,1.07,2.62-1.4,5.92s5.24-2.14,4.61,1.94-1.55,3.69-4.31,2.53,2.14,5.24-.48,6.31-4.61-1.94-4.91-6.4-2.17,7.76-3.63,6.07-3.84-3.78,2.56-8.69-6.01,3.98-5.77.83c.17-2.26,2.62-5.23,4.73-4.9,1.24.19,1.42,1.39,2.2,1.3,1.88-.21,1.8-7.2,3.7-7.49Z"/><path class="cls-54" d="m654.67,438.52s-5.7.06-9.23-2.67-7.57,4.75-6.18,6.14-2.67,3.89-1.64,6.2,5.57,1.03,4.35,2.59,3.57,3.58,4.7.31,3.53,3.56,3.77,1.93,3.77-3.9,1.94-6.55-.21-3.37,2.21-3.76.08-4.19.08-4.19h0Z"/><path class="cls-33" d="m649.32,410.87c.73-.11,1.72.63,2.7,2.58,4.13,8.24,1.07,2.62-1.4,5.92s5.24-2.14,4.61,1.94-1.55,3.69-4.31,2.53,2.14,5.24-.48,6.31-4.61-1.94-4.91-6.4-2.17,7.76-3.63,6.07-3.84-3.78,2.56-8.69-6.01,3.98-5.77.83c.17-2.26,2.62-5.23,4.73-4.9,1.24.19,1.42,1.39,2.2,1.3,1.88-.21,1.8-7.2,3.7-7.49Z"/><path class="cls-58" d="m610.89,462.31s-6.49-1.85-11.45-7.84c-4.96-6-7.02,5.77-4.95,8.68s-1.72,5.92.24,10.33c1.97,4.41,6.71,3.71,5.85,6.03s5.3,7.51,5.47,2.14,5.24,7.46,4.96,4.67,2.97-5.56-.02-10.84-1.39-5.99,1.24-5.84-1.34-7.33-1.34-7.33h0Z"/><path class="cls-42" d="m626.72,642.85s-4.17-4.34-4.62-8.83-9.12-2.7-9.17-.73-4.91.49-5.94,2.79,3.23,4.94,1.16,5.03-.17,5.08,3.16,3.81c3.33-1.27-.18,5.03,1.25,4.15s5.71.35,6.42-2.79,2.44-2.36,4.48-.76,3.27-2.68,3.27-2.68h0Z"/><path class="cls-8" d="m638.53,633.28s-4-6.43,0-8.22-9-5.78-10-1.78-8,8-11,7-9.73-5-7.36,3c2.36,8,13.27,3.58,14.32,4.79s-.04,13.53,4.5,7.87,2.75-9.08,5.15-7.87,12.94,4.79,8.67,0"/><path class="cls-33" d="m660.77,633.01c.7-.24,1.8.32,3.11,2.06,5.53,7.38,1.52,2.39-.33,6.07s4.77-3.03,4.88,1.09-.87,3.9-3.8,3.25,3.03,4.77.65,6.29-4.88-1.09-5.96-5.43-.76,8.03-2.5,6.62-4.45-3.04.98-9-5.21,4.99-5.53,1.84c-.23-2.25,1.65-5.62,3.79-5.66,1.25-.03,1.64,1.12,2.4.89,1.81-.54.49-7.41,2.32-8.03h0Z"/><path class="cls-54" d="m680.25,621.71s-2.26-5.24-1.11-9.55-7.31-5.14-8.05-3.32-4.62-.96-6.35.88,1.2,5.53-.7,5.02-1.92,4.68,1.54,4.45-1.92,4.63-.32,4.22,5.05,1.97,6.79-.75,3.03-1.5,4.32.59,3.89-1.55,3.89-1.55h-.01Z"/><path class="cls-33" d="m665.68,614.08c.38.63.08,1.83-1.34,3.48-6,7-2,2-6,1s4,4,0,5-4,0-4-3-4,4-6,2,0-5,4-7-8,1-7-1,2-5,9-1-6-4-3-5c2.15-.72,5.84.39,6.35,2.47.3,1.22-.73,1.84-.35,2.53.92,1.65,7.34-1.13,8.34.52Z"/><path class="cls-58" d="m627.38,594.55s-.81-6.7,2.8-13.6-8.03-4.24-9.92-1.21-6.12.7-9.43,4.22-.83,7.62-3.3,7.73-4.87,7.79.14,5.88c5.01-1.92-4.85,7.72-2.38,6.38s6.27.59,9.98-4.21c3.71-4.8,4.99-3.6,5.87-1.12s6.24-4.08,6.24-4.08h0Z"/><path class="cls-31" d="m837.47,118.29s-1.64-5.65-.14-9.51-6.42-6.86-7.3-5.3-4.28-2.13-6.09-.8.61,5.66-1.14,4.66-2.26,4.02,1.03,4.7-2.25,3.97-.7,3.99,4.59,3.21,6.49,1.05,3.01-.66,4.03,1.69,3.83-.48,3.83-.48h-.01Z"/><path class="cls-33" d="m783.3,79.23c.28-.68,1.43-1.15,3.6-.98,9.19.7,2.8.43,4.35,4.25s.86-5.59,4.03-2.96,2.36,3.23-.06,5,5.59.86,5.16,3.66-4.03,2.96-8.01.91,5.53,5.86,3.33,6.24-5.22,1.34-6.13-6.67c-.91-8.01.32,7.2-2.26,5.38-1.85-1.31-3.14-4.94-1.76-6.58.81-.96,1.92-.5,2.25-1.21.79-1.72-5.25-5.25-4.51-7.03h.01Z"/><path class="cls-43" d="m781.77,119.47s8.24.09,7.35,5.85,10.09,10.99,8.5,6.03-.09-7.09,1.73-7.4,11.02-2.4,5.51-8.86-12.1-5.71-11.08-8.5-7.08-8.5-6.84-3.88-5.95,7.73-7.79,5.71-2.34,12.64,2.62,11.05h0Z"/></g></g></svg>